<?xml version="1.0" encoding="UTF-8"?>
<svg version="1.1" xmlns="http://www.w3.org/2000/svg" width="256" height="256">
<path d="M0 0 C7.4689094 3.47285573 15.05565193 6.29145754 22.875 8.875 C23.90681396 9.21668213 24.93862793 9.55836426 26.00170898 9.91040039 C30.34373245 11.32187188 34.57144346 12.59331644 39.0625 13.4375 C39.71992188 13.6025 40.37734375 13.7675 41.0546875 13.9375 C44.28190306 14.74116458 47.55370715 15.31713578 50.8203125 15.9375 C53.0625 16.4375 53.0625 16.4375 55.0625 17.4375 C57.0999763 17.66608114 59.14290303 17.84774278 61.1875 18 C62.83105469 18.12568359 62.83105469 18.12568359 64.5078125 18.25390625 C65.77238281 18.34478516 65.77238281 18.34478516 67.0625 18.4375 C67.0625 19.0975 67.0625 19.7575 67.0625 20.4375 C70.0325 20.1075 73.0025 19.7775 76.0625 19.4375 C76.0625 19.7675 76.0625 20.0975 76.0625 20.4375 C77.19429687 20.41429688 78.32609375 20.39109375 79.4921875 20.3671875 C80.97395175 20.34843099 82.45572312 20.33023066 83.9375 20.3125 C84.68386719 20.29574219 85.43023437 20.27898438 86.19921875 20.26171875 C88.15444461 20.2441041 90.10992021 20.33429811 92.0625 20.4375 C96.03985796 24.41485796 96.29000706 29.94641996 96.31474304 35.3631134 C96.30396477 36.41507149 96.30396477 36.41507149 96.29296875 37.48828125 C96.29251053 38.2282988 96.29205231 38.96831635 96.2915802 39.73075867 C96.28857975 41.28121564 96.28076039 42.83167019 96.26831055 44.38208008 C96.24991736 46.76068713 96.24780213 49.13890696 96.24804688 51.51757812 C96.24313583 53.02864921 96.23730933 54.53971766 96.23046875 56.05078125 C96.22935593 56.76220779 96.2282431 57.47363434 96.22709656 58.20661926 C96.17862787 63.20524426 96.17862787 63.20524426 95.0625 65.4375 C94.75859516 68.16662561 94.49580708 70.89060246 94.25 73.625 C90.41308938 111.77932657 79.22027033 149.11758949 60.0625 182.4375 C59.48653076 183.45505371 59.48653076 183.45505371 58.89892578 184.49316406 C43.56547452 211.47219173 22.84032595 235.61875463 -5.9375 248.4375 C-6.70964844 248.81003906 -7.48179687 249.18257812 -8.27734375 249.56640625 C-15.6346078 251.97561313 -20.89351481 249.49298587 -27.4765625 246.26171875 C-62.80809489 227.63889073 -85.32936908 194.3706367 -100.9375 158.4375 C-101.26314941 157.69516113 -101.58879883 156.95282227 -101.92431641 156.18798828 C-116.69847484 122.1231442 -124.40929079 85.31544335 -124.14331055 48.20947266 C-124.12467735 45.51585712 -124.12280433 42.8225805 -124.12304688 40.12890625 C-124.11814276 38.40103869 -124.11231934 36.67317344 -124.10546875 34.9453125 C-124.10435593 34.14747345 -124.1032431 33.3496344 -124.10209656 32.52761841 C-124.07191507 29.01536976 -124.01432677 25.79203998 -122.9375 22.4375 C-119.48566012 19.71683803 -115.4811937 20.28955663 -111.3125 20.4375 C-105.63738291 20.55051433 -100.53936121 20.21433696 -94.9921875 18.87890625 C-92.29284492 18.29900946 -89.68733036 18.36875424 -86.9375 18.4375 C-86.2775 18.1075 -85.6175 17.7775 -84.9375 17.4375 C-83.46267395 17.23600574 -81.9822732 17.07380098 -80.5 16.9375 C-77.72262294 16.68126752 -75.61087533 16.32862511 -72.9375 15.4375 C-71.5453125 15.2209375 -71.5453125 15.2209375 -70.125 15 C-66.89863712 14.43064184 -64.03626432 13.49107987 -60.9375 12.4375 C-56.80549398 11.24954827 -52.78016006 10.3739385 -48.5 9.9375 C-47.324375 9.7725 -46.14875 9.6075 -44.9375 9.4375 C-44.6075 8.7775 -44.2775 8.1175 -43.9375 7.4375 C-41.5390625 6.40234375 -41.5390625 6.40234375 -38.5625 5.375 C-37.09683594 4.86259766 -37.09683594 4.86259766 -35.6015625 4.33984375 C-33.71516911 3.70090405 -31.82695801 3.06731934 -29.9375 2.4375 C-28.29007813 1.61378906 -28.29007813 1.61378906 -26.609375 0.7734375 C-25.97386719 0.45632812 -25.33835937 0.13921875 -24.68359375 -0.1875 C-23.36216699 -0.84950636 -22.04685353 -1.52387149 -20.73828125 -2.2109375 C-13.02188636 -5.99926819 -7.29004717 -3.52813991 0 0 Z " fill="#C5D9FE" transform="translate(141.9375,5.5625)"/>
<path d="M0 0 C0 33.66 0 67.32 0 102 C-25.60741816 102 -50.71307833 98.67939743 -76 95 C-78.09706039 88.53597952 -79.63813453 82.22992236 -80.5625 75.5 C-80.68471924 74.63616699 -80.80693848 73.77233398 -80.93286133 72.88232422 C-81.2983988 70.25611868 -81.64976293 67.62828336 -82 65 C-82.10731445 64.2359082 -82.21462891 63.47181641 -82.32519531 62.68457031 C-84.4261558 47.60434281 -85.20115183 32.10870615 -83 17 C-82.31711914 16.96036133 -81.63423828 16.92072266 -80.93066406 16.87988281 C-66.78530638 16.02215761 -53.04004034 14.74801556 -39.22705078 11.51904297 C-37.09204439 11.02145213 -34.95209722 10.55701468 -32.80859375 10.09765625 C-24.66908859 8.2816632 -17.19400079 5.67016876 -9.58129883 2.28588867 C-6.08004129 0.74513367 -3.89440369 0 0 0 Z " fill="#013398" transform="translate(119,27)"/>
<path d="M0 0 C4.95 1.98 9.9 3.96 15 6 C25.42647521 9.75728837 35.89211943 12.13977576 46.75 14.25 C47.40298065 14.38092041 48.0559613 14.51184082 48.72872925 14.64672852 C60.12222563 16.90853213 71.40088836 17.62775637 83 18 C83.81801534 66.53033335 83.81801534 66.53033335 79.53613281 83.83007812 C78.7638649 86.95572349 78.119629 90.10762161 77.46044922 93.25878906 C77 95 77 95 76 96 C73.5361333 96.42411134 71.08635351 96.79081182 68.609375 97.12109375 C67.84531845 97.22541718 67.0812619 97.3297406 66.29405212 97.43722534 C63.78017205 97.77701713 61.26528796 98.10829961 58.75 98.4375 C57.46979477 98.60649307 57.46979477 98.60649307 56.16372681 98.77890015 C37.49710719 101.22506124 18.84431977 103 0 103 C0 69.01 0 35.02 0 0 Z " fill="#0085D0" transform="translate(136,26)"/>
<path d="M0 0 C2.31 0.99 4.62 1.98 7 3 C6.34 3.33 5.68 3.66 5 4 C5.99 4.33 6.98 4.66 8 5 C8.02965319 9.49998554 8.04701309 13.99994518 8.0625 18.5 C8.07087891 19.74910156 8.07925781 20.99820313 8.08789062 22.28515625 C8.10396418 28.55384213 7.98198205 34.74920179 7.5 41 C6.56204968 53.7566125 6.89022733 66.59203204 6.93133545 79.37591553 C6.9417077 82.94982303 6.94616236 86.52373792 6.95117188 90.09765625 C6.96178162 97.0651219 6.9787672 104.03255881 7 111 C17.24667528 110.49771854 27.47248337 109.97061939 37.6875 109 C44.35199006 108.38830239 51.00432677 107.85226216 57.6875 107.5 C63.34333469 107.17897739 68.7936789 106.49321775 74.3515625 105.40234375 C77.26789673 104.95930182 80.05460814 104.93521865 83 105 C83 105.66 83 106.32 83 107 C82.01 107.33 81.02 107.66 80 108 C80.66 108.33 81.32 108.66 82 109 C81.39419795 114.45221843 81.39419795 114.45221843 79.796875 116.671875 C77.32914488 118.49584943 75.61970102 118.36991558 72.5625 118.4375 C65.59348565 118.8055266 58.97397293 120.08415766 52.15649414 121.54077148 C51.34559326 121.71294189 50.53469238 121.8851123 49.69921875 122.0625 C48.98596436 122.21847656 48.27270996 122.37445313 47.5378418 122.53515625 C34.65271049 124.89526111 22.38060097 124.52212139 9 125 C8.67 153.71 8.34 182.42 8 212 C2.32628351 214.2694866 0.7339722 214.05122824 -5 213 C-6.81115624 211.18884376 -6.11995376 208.70122499 -6.12442017 206.29098511 C-6.11902725 205.06208054 -6.11902725 205.06208054 -6.11352539 203.80834961 C-6.11367142 202.94988937 -6.11381744 202.09142914 -6.1139679 201.20695496 C-6.11326847 198.35539262 -6.1054747 195.50389475 -6.09765625 192.65234375 C-6.09579218 190.68079158 -6.09436822 188.70923895 -6.09336853 186.73768616 C-6.08954251 181.53773733 -6.07971152 176.33781625 -6.06866455 171.13787842 C-6.05845222 165.83606339 -6.05387129 160.5342439 -6.04882812 155.23242188 C-6.03808933 144.82160237 -6.02101191 134.41080349 -6 124 C-7.52184402 124.00700172 -7.52184402 124.00700172 -9.07443237 124.0141449 C-10.42706269 124.01792115 -11.77969333 124.02158222 -13.13232422 124.02514648 C-13.79846237 124.02851768 -14.46460052 124.03188889 -15.15092468 124.03536224 C-20.85712927 124.04660998 -26.45577284 123.666247 -32.125 123.0625 C-33.01703125 122.97548828 -33.9090625 122.88847656 -34.828125 122.79882812 C-41.30501092 122.14630604 -41.30501092 122.14630604 -44.39599609 121.49560547 C-47.34645493 120.93406117 -50.22103926 120.71902484 -53.21875 120.53515625 C-54.98798828 120.41817383 -54.98798828 120.41817383 -56.79296875 120.29882812 C-59.26407796 120.14129166 -61.7354382 119.98764468 -64.20703125 119.83789062 C-65.38652344 119.75861328 -66.56601563 119.67933594 -67.78125 119.59765625 C-68.85439453 119.53070557 -69.92753906 119.46375488 -71.03320312 119.39477539 C-74.0161212 118.99785484 -76.30609265 118.32721864 -79 117 C-80.14453125 115.1953125 -80.14453125 115.1953125 -80.8125 113.125 C-81.04582031 112.44695312 -81.27914062 111.76890625 -81.51953125 111.0703125 C-82 109 -82 109 -82 105 C-80.07800781 105.20109375 -80.07800781 105.20109375 -78.1171875 105.40625 C-70.1282948 106.20261558 -62.12734145 106.85601887 -54.125 107.5 C-52.88058136 107.60038071 -52.88058136 107.60038071 -51.61102295 107.70278931 C-36.41267356 108.91619501 -21.24426169 109.64516148 -6 110 C-6.06819946 109.01041794 -6.13639893 108.02083588 -6.20666504 107.00126648 C-7.34716472 89.64002289 -7.37238756 72.26929513 -7.45996094 54.87670898 C-7.48242883 50.81379155 -7.52453629 46.75176497 -7.58300781 42.68920898 C-7.65400225 37.74173058 -7.6907679 32.79510459 -7.70307922 27.84714317 C-7.71346253 25.97359412 -7.73584577 24.10007023 -7.77067566 22.22681618 C-7.81681973 19.61608447 -7.81889481 17.00875322 -7.81054688 14.39770508 C-7.8459407 13.24985283 -7.8459407 13.24985283 -7.88204956 12.07881165 C-7.82961999 8.68839819 -7.66391219 6.76243354 -5.38722229 4.14789391 C-3.6497908 2.64816887 -1.8996544 1.28594415 0 0 Z " fill="#D8E5FE" transform="translate(127,21)"/>
<path d="M0 0 C-2.73502832 21.5800405 -17.97040857 44.18857705 -31 61 C-31.48581543 61.63019043 -31.97163086 62.26038086 -32.47216797 62.90966797 C-42.03365224 75.12907236 -53.63607519 85.695833 -68 92 C-68.66 92 -69.32 92 -70 92 C-70 63.29 -70 34.58 -70 5 C-60.76 4.67 -51.52 4.34 -42 4 C-35.14704586 3.38883038 -28.32869638 2.73802338 -21.5 1.9375 C-19.01903923 1.65632122 -16.53776918 1.37812442 -14.05627441 1.10169983 C-12.54669505 0.93259249 -11.0374651 0.76032222 -9.52868652 0.58421326 C-6.31473567 0.21560391 -3.24251144 0 0 0 Z " fill="#0071C3" transform="translate(206,140)"/>
<path d="M0 0 C4.59042638 -0.17655486 8.73268221 0.0635602 13.25 0.91015625 C20.3197871 2.12692766 27.41104023 2.77750978 34.55273438 3.37768555 C36.73354832 3.56111623 38.91365255 3.75161882 41.09375 3.94335938 C50.72571955 4.77636238 60.3446185 5.39653866 70 6 C70 34.38 70 62.76 70 92 C59.4534619 89.89069238 51.57439488 82.26954307 44 75 C43.12601563 74.20078125 42.25203125 73.4015625 41.3515625 72.578125 C26.64978306 58.67672896 15.96478758 40.57267786 7.93310547 22.12011719 C6.16236509 18.09680232 4.19605963 14.16154001 2.26953125 10.2109375 C0.91336896 6.78089011 0.38234037 3.65756935 0 0 Z " fill="#023399" transform="translate(49,140)"/>
<path d="M0 0 C-3.88254441 2.81484469 -7.47657971 4.70490656 -12 6.28125 C-13.84973012 6.94599676 -15.64812849 7.74914931 -17.4375 8.5625 C-20.84260568 9.93649001 -23.98913039 10.72199298 -27.56811523 11.43994141 C-29.84904826 11.96523609 -31.96327676 12.64349577 -34.1640625 13.43359375 C-39.04385324 15.08696041 -43.93783679 16.13495047 -49 17.0625 C-49.91354248 17.23168945 -50.82708496 17.40087891 -51.76831055 17.57519531 C-65.58734579 20.07135099 -78.95684061 21.34021113 -93 21 C-92.83371094 22.10472656 -92.66742188 23.20945312 -92.49609375 24.34765625 C-91.86664362 29.39321342 -91.9751802 34.3624206 -92.0625 39.4375 C-92.14229095 48.21162861 -91.78038994 56.88008693 -91.0625 65.625 C-90.97556885 66.68517334 -90.8886377 67.74534668 -90.79907227 68.83764648 C-90.40855927 73.29729762 -89.93861159 77.61784791 -89 82 C-89.66 82 -90.32 82 -91 82 C-93.46412972 72.9648577 -94.15297859 64.28296122 -94.09765625 54.93359375 C-94.0962413 54.01409439 -94.09482635 53.09459503 -94.09336853 52.14723206 C-94.08782312 49.24395329 -94.07528117 46.34075499 -94.0625 43.4375 C-94.05747793 41.45507925 -94.05291627 39.47265727 -94.04882812 37.49023438 C-94.03787164 32.6601258 -94.02064542 27.83007649 -94 23 C-94.99 23 -95.98 23 -97 23 C-97.07551964 29.02414365 -97.1292311 35.0479975 -97.16479492 41.07250977 C-97.17965795 43.11162122 -97.19995419 45.15070208 -97.22631836 47.18969727 C-97.4632381 66.01784873 -95.57602665 83.87720513 -90.96484375 102.140625 C-90.27894989 104.88420043 -89.63426268 107.61758432 -89.03125 110.37890625 C-87.97597919 115.17559174 -86.79394573 119.93328072 -85.5625 124.6875 C-85.35818359 125.50283203 -85.15386719 126.31816406 -84.94335938 127.15820312 C-83.74704276 131.76830797 -82.30134661 135.79452551 -80 140 C-78.48121632 143.31370986 -77.14310322 146.57452837 -75.98046875 150.03125 C-73.29204212 158.01560735 -70.00788299 165.15058116 -65.921875 172.49609375 C-63.83312732 176.30423738 -61.98124793 180.18356338 -60.203125 184.14453125 C-58.73883425 186.40277185 -57.38924705 186.84688849 -55 188 C-53.5859375 189.76953125 -53.5859375 189.76953125 -52.375 191.8125 C-51.97023437 192.47894531 -51.56546875 193.14539063 -51.1484375 193.83203125 C-50 196 -50 196 -49.0625 198.47265625 C-45.46258998 207.0356775 -37.644198 213.3953607 -30.83984375 219.44921875 C-28.47773637 221.57089154 -26.21984918 223.73241212 -24 226 C-21.05433833 228.98123729 -18.48105186 231.44460555 -14.5 232.9375 C-12 234 -12 234 -10.2265625 235.8984375 C-7.60562529 238.37223437 -5.22263355 239.3838147 -1.875 240.6875 C-0.82054688 241.10386719 0.23390625 241.52023438 1.3203125 241.94921875 C2.20460938 242.29597656 3.08890625 242.64273438 4 243 C4.66 243.33 5.32 243.66 6 244 C12.50475722 244.75007597 17.38288527 243.86023043 23.1875 240.875 C25 240 25 240 27 240 C27 239.34 27 238.68 27 238 C28.32048602 237.19217326 29.68563294 236.4574634 31.0625 235.75 C46.15464811 226.98543807 59.52073492 211.44995661 69.34375 197.27734375 C70.78299912 195.29837621 72.25342159 193.69724004 74 192 C75.96907875 189.04638188 77.35157577 186.50149082 78 183 C78.66 183 79.32 183 80 183 C80.3403125 182.0409375 80.3403125 182.0409375 80.6875 181.0625 C82.15281065 177.64344182 83.92284169 174.49946926 85.78125 171.28125 C87.05267377 168.9014055 88.02965389 166.51683524 89 164 C90.25438144 160.9766191 91.51792564 157.95715335 92.78125 154.9375 C93.87564256 152.29973332 94.94613678 149.65417404 96 147 C96.66 147 97.32 147 98 147 C98.20753906 146.1234375 98.41507813 145.246875 98.62890625 144.34375 C101.6812051 131.77696311 105.31758145 119.39478487 109 107 C109.66 107 110.32 107 111 107 C111.33 105.68 111.66 104.36 112 103 C115.38182565 109.7636513 107.43703662 125.56109938 105 133 C99.34272612 149.33734119 92.61807941 165.01111404 84 180 C83.42403076 181.01755371 83.42403076 181.01755371 82.83642578 182.05566406 C67.50297452 209.03469173 46.77782595 233.18125463 18 246 C17.22785156 246.37253906 16.45570313 246.74507812 15.66015625 247.12890625 C8.3028922 249.53811313 3.04398519 247.05548587 -3.5390625 243.82421875 C-38.87059489 225.20139073 -61.39186908 191.9331367 -77 156 C-77.32564941 155.25766113 -77.65129883 154.51532227 -77.98681641 153.75048828 C-92.76097484 119.6856442 -100.47179079 82.87794335 -100.20581055 45.77197266 C-100.18717735 43.07835712 -100.18530433 40.3850805 -100.18554688 37.69140625 C-100.18064276 35.96353869 -100.17481934 34.23567344 -100.16796875 32.5078125 C-100.16685593 31.70997345 -100.1657431 30.9121344 -100.16459656 30.09011841 C-100.13441507 26.57786976 -100.07682677 23.35453998 -99 20 C-95.54816012 17.27933803 -91.5436937 17.85205663 -87.375 18 C-81.69988291 18.11301433 -76.60186121 17.77683696 -71.0546875 16.44140625 C-68.35534492 15.86150946 -65.74983036 15.93125424 -63 16 C-62.34 15.67 -61.68 15.34 -61 15 C-59.52517395 14.79850574 -58.0447732 14.63630098 -56.5625 14.5 C-53.78512294 14.24376752 -51.67337533 13.89112511 -49 13 C-47.6078125 12.7834375 -47.6078125 12.7834375 -46.1875 12.5625 C-42.96113712 11.99314184 -40.09876432 11.05357987 -37 10 C-32.86799398 8.81204827 -28.84266006 7.9364385 -24.5625 7.5 C-23.386875 7.335 -22.21125 7.17 -21 7 C-20.67 6.34 -20.34 5.68 -20 5 C-17.6015625 3.96484375 -17.6015625 3.96484375 -14.625 2.9375 C-13.64789063 2.59589844 -12.67078125 2.25429687 -11.6640625 1.90234375 C-9.77766911 1.26340405 -7.88945801 0.62981934 -6 0 C-3.50907189 -1.24546405 -2.58919267 -0.7767578 0 0 Z " fill="#A7C6FF" transform="translate(118,8)"/>
<path d="M0 0 C4.95 1.98 9.9 3.96 15 6 C25.42647521 9.75728837 35.89211943 12.13977576 46.75 14.25 C47.40298065 14.38092041 48.0559613 14.51184082 48.72872925 14.64672852 C60.12222563 16.90853213 71.40088836 17.62775637 83 18 C83.81920915 66.60115811 83.81920915 66.60115811 79 86 C78.61797863 87.6917169 78.24027726 89.38441592 77.8671875 91.078125 C77.7007373 91.8299707 77.53428711 92.58181641 77.36279297 93.35644531 C77.18321045 94.17000488 77.18321045 94.17000488 77 95 C75.68 95 74.36 95 73 95 C73.7179108 88.84253431 74.7194182 82.7920226 75.89453125 76.70703125 C78.1864322 64.27520489 78.12861503 51.83929907 78.0625 39.25 C78.05747197 37.57031384 78.05291138 35.89062622 78.04882812 34.2109375 C78.03793264 30.14058804 78.02074084 26.07031071 78 22 C76.7924707 22.02066528 76.7924707 22.02066528 75.56054688 22.04174805 C68.11006264 22.11414098 60.8865516 21.77270803 53.5 20.8125 C51.96194702 20.61394409 51.96194702 20.61394409 50.39282227 20.41137695 C35.67666804 18.39293485 21.58504747 15.13935164 7.93359375 9.234375 C4.88121717 7.86213766 4.88121717 7.86213766 1 7 C1.33 38.35 1.66 69.7 2 102 C1.34 102 0.68 102 0 102 C0 68.34 0 34.68 0 0 Z " fill="#063FA1" transform="translate(136,26)"/>
<path d="M0 0 C2.475 0.495 2.475 0.495 5 1 C5 1.66 5 2.32 5 3 C6.051875 3.12375 7.10375 3.2475 8.1875 3.375 C11.45958771 3.91140782 14.00536076 4.63880035 17 6 C17 6.66 17 7.32 17 8 C13.30973516 7.36738317 10.57274103 6.42909641 7 5 C6.67 38.66 6.34 72.32 6 107 C16.395 106.01 16.395 106.01 27 105 C35.55859375 104.53515625 35.55859375 104.53515625 39.69091797 104.31298828 C47.8570163 103.78444205 55.96067941 102.55448323 64.0625 101.4375 C65.81567708 101.20059296 67.56893211 100.96426206 69.32226562 100.72851562 C73.54910074 100.15894825 77.77481981 99.58171145 82 99 C83.65374316 92.08607893 85.26155561 85.23892268 86.1875 78.1875 C86.34605469 77.00542969 86.50460938 75.82335937 86.66796875 74.60546875 C86.77753906 73.74566406 86.88710937 72.88585937 87 72 C87.33 72 87.66 72 88 72 C87.79605673 84.28230767 87.19796489 95.35686392 83 107 C82.61972656 108.08796875 82.23945313 109.1759375 81.84765625 110.296875 C80.92758613 112.87700045 79.98119382 115.44263314 79 118 C78.34 118 77.68 118 77 118 C77 120.31 77 122.62 77 125 C75.9375 123.1875 75.9375 123.1875 75 121 C75.495 119.515 75.495 119.515 76 118 C74.98421875 118.13277344 73.9684375 118.26554687 72.921875 118.40234375 C64.62535277 119.47175414 56.34647995 120.39930637 48 121 C55.75223413 115.83184391 67.91133829 116.56525228 77 116 C77.66 113.36 78.32 110.72 79 108 C76.36 108 73.72 108 71 108 C71 107.67 71 107.34 71 107 C75.455 106.505 75.455 106.505 80 106 C80 105.34 80 104.68 80 104 C79.06027344 104.19335938 78.12054688 104.38671875 77.15234375 104.5859375 C65.43131783 106.83297356 53.71001301 107.69028361 41.81616211 108.35302734 C34.23619416 108.73734902 34.23619416 108.73734902 26.6953125 109.55078125 C22.10766973 110.10847567 17.61515303 110.10858064 13 110.0625 C12.12988281 110.05798828 11.25976562 110.05347656 10.36328125 110.04882812 C8.24215707 110.0371736 6.1210689 110.01924357 4 110 C3.00573924 94.48243032 2.88854374 78.98109987 2.875 63.4375 C2.87125366 61.93796783 2.87125366 61.93796783 2.86743164 60.40814209 C2.8466925 50.27271572 2.89917894 40.21339493 3.74609375 30.10864258 C4.16706534 24.9545741 4.35516715 19.7913267 4.5625 14.625 C4.60568359 13.59117188 4.64886719 12.55734375 4.69335938 11.4921875 C4.79741462 8.99486155 4.89962328 6.49747602 5 4 C4.01 4.33 3.02 4.66 2 5 C2.33 4.01 2.66 3.02 3 2 C2.01 1.34 1.02 0.68 0 0 Z " fill="#BCD5FF" transform="translate(130,22)"/>
<path d="M0 0 C2.19047072 3.28570608 4.02931417 6.70295774 5.875 10.1875 C6.23142578 10.85934326 6.58785156 11.53118652 6.95507812 12.22338867 C14 25.53565078 14 25.53565078 14 28 C14.99 28.33 15.98 28.66 17 29 C17.75057158 30.72957799 18.49529087 32.46281773 19.171875 34.22265625 C20.3013832 36.64683659 22.09386445 38.15959326 24 40 C24 40.99 24 41.98 24 43 C24.5878125 43.23976562 25.175625 43.47953125 25.78125 43.7265625 C28.452271 45.25957807 29.67396594 46.90024331 31.5 49.375 C39.96059843 60.21269818 49.39713757 68.65733643 61 76 C61.94617188 76.59941406 62.89234375 77.19882813 63.8671875 77.81640625 C70.47275251 81.88363099 76.0589445 85.07399521 84 84 C86.55503957 82.71711243 86.55503957 82.71711243 89 81 C90.2375 80.5875 91.475 80.175 92.75 79.75 C97.92841186 77.9217439 101.84910938 74.50711823 106 71 C106.66 71.33 107.32 71.66 108 72 C105.7429203 76.70224937 102.72792022 78.70545128 98.25 81.0625 C97.65445313 81.38798828 97.05890625 81.71347656 96.4453125 82.04882812 C95.24239886 82.70626469 94.03606883 83.35748858 92.82641602 84.00244141 C90.95132394 85.02658607 89.1261578 86.11781338 87.29296875 87.21484375 C83.38903694 89.33121011 80.30546747 89.83305022 76 89 C73.87540193 88.1656272 71.94031878 87.18907829 69.94921875 86.07421875 C68.0822088 85.04530545 66.23612214 84.26649916 64.25 83.5 C61.00527012 82.00243236 59.44337593 80.52482179 57 78 C55.85337891 77.57267578 55.85337891 77.57267578 54.68359375 77.13671875 C51.57001614 75.8178671 49.66283665 74.17038487 47.1875 71.875 C46.31738281 71.070625 45.44726562 70.26625 44.55078125 69.4375 C41.6254851 66.64211746 38.7696994 63.78773769 35.9375 60.8984375 C33.99125957 58.99143579 31.96377342 57.24855654 29.875 55.5 C24.48774522 50.85508348 20.41415105 45.72513506 18 39 C15.90010745 34.23769953 15.90010745 34.23769953 12.02734375 31.078125 C6.4713887 28.12351307 4.45218851 18.81645804 2.6953125 13.1015625 C2.01377237 11.04162661 1.17584449 9.14762121 0.25 7.1875 C-1 4 -1 4 -0.6875 1.5625 C-0.460625 1.046875 -0.23375 0.53125 0 0 Z " fill="#D2E2FF" transform="translate(48,164)"/>
<path d="M0 0 C1.32 0 2.64 0 4 0 C1.26497168 21.5800405 -13.97040857 44.18857705 -27 61 C-27.48581543 61.63019043 -27.97163086 62.26038086 -28.47216797 62.90966797 C-38.03365224 75.12907236 -49.63607519 85.695833 -64 92 C-64.66 92 -65.32 92 -66 92 C-65.87109375 89.73828125 -65.87109375 89.73828125 -65 87 C-62.41015625 85.04296875 -62.41015625 85.04296875 -59.0625 83.1875 C-28.36725059 65.46653127 -10.88218881 32.64656642 0 0 Z " fill="#05389C" transform="translate(202,140)"/>
<path d="M0 0 C3.6047002 0.11178069 7.20852789 0.24193026 10.8125 0.375 C12.31973633 0.42140625 12.31973633 0.42140625 13.85742188 0.46875 C14.85966797 0.50742188 15.86191406 0.54609375 16.89453125 0.5859375 C17.80050049 0.6173584 18.70646973 0.6487793 19.63989258 0.68115234 C24.46691697 1.13919883 29.22950191 2.13263671 34 3 C43.9 3.66 53.8 4.32 64 5 C64.33 34.04 64.66 63.08 65 93 C72.52565835 94.36893239 72.52565835 94.36893239 78 93 C78 64.29 78 35.58 78 6 C78.33 6 78.66 6 79 6 C79 34.38 79 62.76 79 92 C79.66 92.33 80.32 92.66 81 93 C77.02887579 95.76775324 73.85119977 96.83271725 69 97 C66.37869073 96.27705955 64.42754663 95.31087518 62 94 C60.40579989 90.81159978 60.92146495 87.37549973 60.97827148 83.87841797 C60.98787903 83.03931885 60.99748657 82.20021973 61.00738525 81.33569336 C61.04043986 78.5544411 61.08074753 75.77334277 61.12109375 72.9921875 C61.14538855 71.06691027 61.16923243 69.1416273 61.19264221 67.21633911 C61.25554679 62.142939 61.32459536 57.06964017 61.39489746 51.99633789 C61.4655234 46.82182437 61.53037469 41.64723889 61.59570312 36.47265625 C61.7247976 26.31502509 61.86037894 16.15749154 62 6 C60.94451965 6.00679779 59.88903931 6.01359558 58.80157471 6.02059937 C51.64456446 6.05315158 44.55634199 6.05149066 37.421875 5.4140625 C36.71830872 5.35221771 36.01474243 5.29037292 35.28985596 5.22665405 C33.83485959 5.09719209 32.38015619 4.96439076 30.92578125 4.828125 C28.73768848 4.62385063 26.54874174 4.43227054 24.359375 4.2421875 C16.17341464 3.51161848 8.0842393 2.5102212 0 1 C0 0.67 0 0.34 0 0 Z " fill="#9FBEF5" transform="translate(57,140)"/>
<path d="M0 0 C6.27 0 12.54 0 19 0 C19.76013905 48.83893395 19.76013905 48.83893395 15 68 C14.61797863 69.6917169 14.24027726 71.38441592 13.8671875 73.078125 C13.7007373 73.8299707 13.53428711 74.58181641 13.36279297 75.35644531 C13.24307129 75.89881836 13.12334961 76.44119141 13 77 C11.68 77 10.36 77 9 77 C9.7179108 70.84253431 10.7194182 64.7920226 11.89453125 58.70703125 C14.21664581 46.11131893 14.12756475 33.5051454 14.0625 20.75 C14.05747243 19.02213672 14.05291176 17.29427202 14.04882812 15.56640625 C14.03792797 11.37756832 14.02073348 7.18880033 14 3 C11.03 3 8.06 3 5 3 C5 2.34 5 1.68 5 1 C3.35 1 1.7 1 0 1 C0 0.67 0 0.34 0 0 Z " fill="#04369B" transform="translate(200,44)"/>
<path d="M0 0 C10.3708856 5.47179038 21.56821826 9.25110318 32.9375 12.07421875 C33.494375 12.31785156 34.05125 12.56148437 34.625 12.8125 C35.12 14.2975 35.12 14.2975 35.625 15.8125 C29.23439412 16.063112 29.23439412 16.063112 26.40234375 14.8984375 C22.12559724 13.22623563 17.67564788 12.68108971 13.15625 11.95703125 C11.30075877 11.63747443 9.46057494 11.23158104 7.625 10.8125 C7.13 9.8225 7.13 9.8225 6.625 8.8125 C4.08115533 7.97416796 4.08115533 7.97416796 1.125 7.3125 C-1.90625 6.59375 -1.90625 6.59375 -4.375 5.8125 C-4.87 4.8225 -4.87 4.8225 -5.375 3.8125 C-9.20780941 1.78962837 -11.24893277 1.7393782 -15.375 2.8125 C-17.95587185 3.73839817 -20.50904502 4.6922593 -23.0625 5.6875 C-40.178511 12.21132967 -40.178511 12.21132967 -44.375 10.8125 C-39.75694915 7.57986441 -34.74285295 6.28214518 -29.375 4.8125 C-29.375 4.1525 -29.375 3.4925 -29.375 2.8125 C-26.86273942 1.60311646 -24.34284793 0.42042526 -21.8125 -0.75 C-21.10802734 -1.09224609 -20.40355469 -1.43449219 -19.67773438 -1.78710938 C-12.18275692 -5.20647697 -7.16084417 -3.9271942 0 0 Z " fill="#E5EEFF" transform="translate(139.375,19.1875)"/>
<path d="M0 0 C0.33 0 0.66 0 1 0 C0.79605673 12.28230767 0.19796489 23.35686392 -4 35 C-4.38027344 36.08796875 -4.76054687 37.1759375 -5.15234375 38.296875 C-6.07241387 40.87700045 -7.01880618 43.44263314 -8 46 C-8.66 46 -9.32 46 -10 46 C-10 48.31 -10 50.62 -10 53 C-11.0625 51.1875 -11.0625 51.1875 -12 49 C-11.67 48.01 -11.34 47.02 -11 46 C-12.01578125 46.13277344 -13.0315625 46.26554687 -14.078125 46.40234375 C-22.37464723 47.47175414 -30.65352005 48.39930637 -39 49 C-31.24776587 43.83184391 -19.08866171 44.56525228 -10 44 C-9.34 41.36 -8.68 38.72 -8 36 C-10.64 36 -13.28 36 -16 36 C-16 35.67 -16 35.34 -16 35 C-11.545 34.505 -11.545 34.505 -7 34 C-7 33.34 -7 32.68 -7 32 C-8.19488037 32.09087891 -9.38976074 32.18175781 -10.62084961 32.27539062 C-15.08788277 32.61423824 -19.55524036 32.94863287 -24.02270508 33.28173828 C-25.94987863 33.42604628 -27.87696424 33.57153403 -29.80395508 33.71826172 C-32.5865237 33.92992412 -35.36938935 34.13722926 -38.15234375 34.34375 C-39.00271713 34.40937134 -39.85309052 34.47499268 -40.72923279 34.54260254 C-45.53998801 34.89490077 -50.29615738 35.05331018 -55.1199646 34.97462463 C-57.49427305 35.00667134 -59.68221389 35.50579437 -62 36 C-64.26995419 36.06652855 -66.54168695 36.08543751 -68.8125 36.0625 C-69.97394531 36.05347656 -71.13539063 36.04445312 -72.33203125 36.03515625 C-73.21246094 36.02355469 -74.09289062 36.01195312 -75 36 C-71.71639453 33.81092969 -70.53430025 33.70917821 -66.69921875 33.54296875 C-65.59408936 33.4847998 -64.48895996 33.42663086 -63.3503418 33.36669922 C-61.53723511 33.27799561 -61.53723511 33.27799561 -59.6875 33.1875 C-47.10463348 32.46282805 -34.6754659 31.0687403 -22.1875 29.375 C-20.90085953 29.20065933 -20.90085953 29.20065933 -19.58822632 29.02279663 C-14.72373248 28.36079047 -9.86118139 27.68588789 -5 27 C-3.34625684 20.08607893 -1.73844439 13.23892268 -0.8125 6.1875 C-0.65394531 5.00542969 -0.49539062 3.82335937 -0.33203125 2.60546875 C-0.22246094 1.74566406 -0.11289063 0.88585937 0 0 Z " fill="#A1C6FB" transform="translate(217,94)"/>
<path d="M0 0 C3.04191531 0.31021513 6.08351734 0.62309453 9.125 0.9375 C9.9809375 1.02451172 10.836875 1.11152344 11.71875 1.20117188 C15.15376426 1.55788489 18.54612732 1.91753242 21.9453125 2.53515625 C26.52868155 3.23262545 31.12089963 3.33110039 35.75 3.5 C42.86922769 3.76403729 49.91880695 4.20505408 57 5 C58.16203888 8.48611663 58.12950712 11.22878167 58.1328125 14.90625 C58.13376923 15.58619019 58.13472595 16.26613037 58.13571167 16.9666748 C58.1363921 18.40909925 58.13454736 19.85152676 58.13037109 21.29394531 C58.125087 23.46426614 58.13028599 25.63437368 58.13671875 27.8046875 C58.1485692 49.23352931 58.1485692 49.23352931 55 57 C54.1395536 54.04332303 53.9005719 51.48848928 53.97827148 48.41503906 C53.99836777 47.51440735 54.01846405 46.61377563 54.03916931 45.68585205 C54.06620438 44.72217712 54.09323944 43.7585022 54.12109375 42.765625 C54.15651024 41.27588165 54.15651024 41.27588165 54.19264221 39.75604248 C54.26915068 36.58721162 54.3532304 33.41863304 54.4375 30.25 C54.4907335 28.10027272 54.54347381 25.95053316 54.59570312 23.80078125 C54.72474847 18.53369842 54.86000885 13.26680265 55 8 C53.69546875 8.02102783 52.3909375 8.04205566 51.046875 8.0637207 C41.51811563 8.17158204 32.37760576 8.09097305 23 6.1875 C22.04085693 6.00735352 21.08171387 5.82720703 20.09350586 5.64160156 C13.33419403 4.34603335 6.62316035 2.88012294 0 1 C0 0.67 0 0.34 0 0 Z " fill="#A2BFF3" transform="translate(164,36)"/>
<path d="M0 0 C0.99 0 1.98 0 3 0 C3.33 34.65 3.66 69.3 4 105 C-31.02293578 105 -31.02293578 105 -41 102 C-41.33 101.34 -41.66 100.68 -42 100 C-37.34082325 100.26379219 -32.68182067 100.53043017 -28.02294922 100.79956055 C-26.44226347 100.8904878 -24.86153493 100.9806745 -23.28076172 101.07006836 C-20.99174175 101.19964919 -18.70289558 101.33200732 -16.4140625 101.46484375 C-15.72196686 101.50343002 -15.02987122 101.5420163 -14.31680298 101.58177185 C-8.84811553 101.90320921 -3.46520869 102.45347913 2 103 C2 69.34 2 35.68 2 1 C1.34 0.67 0.68 0.34 0 0 Z " fill="#9BBCF6" transform="translate(117,26)"/>
<path d="M0 0 C4.23623542 0.09346313 8.47190851 0.19953913 12.70751953 0.31738281 C14.1488374 0.35569674 15.59025168 0.39054543 17.03173828 0.421875 C19.10223886 0.46747446 21.17207433 0.52547444 23.2421875 0.5859375 C25.11173096 0.63306885 25.11173096 0.63306885 27.01904297 0.68115234 C30 1 30 1 32 3 C35.23528987 20.35104504 33.61191626 39.62401251 31 57 C30.80320718 58.45179877 30.60659584 59.90362215 30.41015625 61.35546875 C28.70480322 73.21743581 25.50665331 84.55616199 22 96 C21.67 96 21.34 96 21 96 C21.47472807 91.82239301 22.27917141 87.97994978 23.4375 83.9375 C25.26493384 76.95599304 25.76042866 69.91761191 26.26538086 62.74194336 C26.80112361 55.59428944 26.80112361 55.59428944 27.99609375 52.0234375 C31.33096089 41.97990766 30.11886836 30.28531666 30.0625 19.8125 C30.05747294 18.17643367 30.05291217 16.54036583 30.04882812 14.90429688 C30.03792277 10.93616014 30.0207253 6.96809709 30 3 C29.4013916 3.01160156 28.8027832 3.02320313 28.18603516 3.03515625 C21.8482063 3.1038723 15.67174119 2.6903094 9.375 2 C8.46621094 1.90460937 7.55742187 1.80921875 6.62109375 1.7109375 C4.41352957 1.47856232 2.20657739 1.24153511 0 1 C0 0.67 0 0.34 0 0 Z " fill="#DBE8FF" transform="translate(191,38)"/>
<path d="M0 0 C0.99 0 1.98 0 3 0 C3.02891949 4.29165262 3.04677118 8.58328036 3.0625 12.875 C3.07087891 14.09832031 3.07925781 15.32164063 3.08789062 16.58203125 C3.09111328 17.74863281 3.09433594 18.91523437 3.09765625 20.1171875 C3.10289307 21.19597168 3.10812988 22.27475586 3.11352539 23.38623047 C3 26 3 26 2 28 C1.69678838 30.74991925 1.43321464 33.49490039 1.1875 36.25 C0.4383889 43.88811203 -0.61628055 51.43979312 -1.9375 59 C-2.09516846 59.94907227 -2.25283691 60.89814453 -2.4152832 61.87597656 C-2.57601318 62.7625293 -2.73674316 63.64908203 -2.90234375 64.5625 C-3.04148193 65.34753906 -3.18062012 66.13257812 -3.32397461 66.94140625 C-4.10218036 69.31115376 -5.12259648 70.39637782 -7 72 C-7 69.36 -7 66.72 -7 64 C-6.34 64 -5.68 64 -5 64 C-4.95101562 63.19820312 -4.90203125 62.39640625 -4.8515625 61.5703125 C-4.38294304 54.44406493 -3.77041471 47.34953597 -3 40.25 C-2.9170166 39.46383301 -2.8340332 38.67766602 -2.74853516 37.86767578 C-2.12063841 32.24127681 -2.12063841 32.24127681 -1 30 C-0.84504237 27.75025839 -0.74989072 25.49628464 -0.68359375 23.2421875 C-0.66281265 22.57913605 -0.64203156 21.91608459 -0.62062073 21.23294067 C-0.55520769 19.11373306 -0.49627895 16.994401 -0.4375 14.875 C-0.39430691 13.43878919 -0.35069236 12.00259098 -0.30664062 10.56640625 C-0.19953501 7.04440406 -0.09824425 3.52226175 0 0 Z " fill="#B5D0FF" transform="translate(235,43)"/>
<path d="M0 0 C-2.13903771 3.20855656 -2.3971088 3.41703595 -5.8515625 4.3515625 C-6.62113281 4.56296875 -7.39070313 4.774375 -8.18359375 4.9921875 C-8.98925781 5.20101562 -9.79492188 5.40984375 -10.625 5.625 C-11.40746094 5.8415625 -12.18992188 6.058125 -12.99609375 6.28125 C-21.90926002 8.67583198 -30.31280722 9.14086844 -39.5 9.0625 C-40.51320313 9.05798828 -41.52640625 9.05347656 -42.5703125 9.04882812 C-45.04693827 9.03714593 -47.52343657 9.02076582 -50 9 C-50 8.01 -50 7.02 -50 6 C-49.07441284 5.94054199 -49.07441284 5.94054199 -48.13012695 5.87988281 C-35.81488978 5.05590798 -23.77873577 3.8742013 -11.69067383 1.32128906 C-7.72484962 0.48588 -4.0826782 -0.24945081 0 0 Z " fill="#D9E6FF" transform="translate(85,32)"/>
<path d="M0 0 C-0.99 0.33 -1.98 0.66 -3 1 C-3.66 0.67 -4.32 0.34 -5 0 C-2.96291618 2.21161309 -1.16042757 3.58544734 1.57421875 4.82421875 C2.57485352 5.28344727 2.57485352 5.28344727 3.59570312 5.75195312 C4.28599609 6.06068359 4.97628906 6.36941406 5.6875 6.6875 C6.38939453 7.00783203 7.09128906 7.32816406 7.81445312 7.65820312 C9.54025143 8.44479147 11.2697711 9.22320597 13 10 C8.82604157 11.29917911 6.105618 10.47182532 2 9 C1.505 8.01 1.505 8.01 1 7 C-2.83280941 4.97712837 -4.87393277 4.9268782 -9 6 C-11.58087185 6.92589817 -14.13404502 7.8797593 -16.6875 8.875 C-33.803511 15.39882967 -33.803511 15.39882967 -38 14 C-33.38194915 10.76736441 -28.36785295 9.46964518 -23 8 C-23 7.34 -23 6.68 -23 6 C-20.48773942 4.79061646 -17.96784793 3.60792526 -15.4375 2.4375 C-14.73302734 2.09525391 -14.02855469 1.75300781 -13.30273438 1.40039062 C-8.3434045 -0.86216079 -5.31857303 -1.27897354 0 0 Z " fill="#DDE8FF" transform="translate(133,16)"/>
<path d="M0 0 C7.60315896 -0.12089829 15.15807268 0.03828371 22.75 0.4375 C23.54841309 0.47673584 24.34682617 0.51597168 25.16943359 0.55639648 C30.87880977 0.87880977 30.87880977 0.87880977 32 2 C32.1395844 4.94667489 32.21292522 7.86793511 32.23828125 10.81640625 C32.24780319 11.72835754 32.25732513 12.64030884 32.26713562 13.57989502 C32.29187625 16.5741277 32.30418401 19.56817826 32.3125 22.5625 C32.31644775 23.57388031 32.32039551 24.58526062 32.32446289 25.62728882 C32.35743782 43.69414584 30.94251117 61.18254707 28 79 C27.34 79 26.68 79 26 79 C25.8056678 72.66308059 26.75032133 66.78106821 27.84570312 60.5546875 C30.08080435 47.2967212 30.13120406 34.08738416 30.0625 20.6875 C30.05747105 18.96419402 30.05291063 17.24088661 30.04882812 15.51757812 C30.037942 11.34501591 30.02075565 7.17252432 30 3 C28.9378125 3.01160156 27.875625 3.02320313 26.78125 3.03515625 C12.8531642 3.14219403 12.8531642 3.14219403 6 2 C4.845 1.814375 3.69 1.62875 2.5 1.4375 C1.675 1.293125 0.85 1.14875 0 1 C0 0.67 0 0.34 0 0 Z " fill="#DDE9FF" transform="translate(202,28)"/>
<path d="M0 0 C2.475 0.495 2.475 0.495 5 1 C5 1.66 5 2.32 5 3 C6.051875 3.12375 7.10375 3.2475 8.1875 3.375 C11.45958771 3.91140782 14.00536076 4.63880035 17 6 C17 6.66 17 7.32 17 8 C13.30973516 7.36738317 10.57274103 6.42909641 7 5 C6.67 38.66 6.34 72.32 6 107 C5.67 107 5.34 107 5 107 C4.84519981 95.9330287 4.69703654 84.86598948 4.5570364 73.7988205 C4.49180681 68.65831177 4.42440521 63.51785177 4.35180664 58.37744141 C4.28165438 53.4043099 4.21751194 48.43113198 4.15730476 43.45787048 C4.133476 41.57312776 4.10758584 39.68840978 4.07946587 37.8037262 C3.9120473 26.47622422 4.09245017 15.29721003 5 4 C4.01 4.33 3.02 4.66 2 5 C2.33 4.01 2.66 3.02 3 2 C2.01 1.34 1.02 0.68 0 0 Z " fill="#9DBFFB" transform="translate(130,22)"/>
<path d="M0 0 C0.66 0 1.32 0 2 0 C3.1001215 3.52709477 3.08592136 6.74050843 3.02172852 10.42089844 C2.99158409 12.37246857 2.99158409 12.37246857 2.96083069 14.36346436 C2.93363624 15.77877009 2.90632537 17.1940736 2.87890625 18.609375 C2.85459336 20.06096643 2.83075039 21.51256581 2.80735779 22.96417236 C2.74463306 26.77827015 2.67553379 30.59222674 2.60510254 34.40618896 C2.53431398 38.30067534 2.46956006 42.19526155 2.40429688 46.08984375 C2.27543425 53.72667522 2.13927885 61.36335009 2 69 C-4.93 69 -11.86 69 -19 69 C-19 68.67 -19 68.34 -19 68 C-12.4 68 -5.8 68 1 68 C0.75443359 64.61427734 0.75443359 64.61427734 0.50390625 61.16015625 C-0.27419936 48.93088131 -0.10790314 36.6852102 -0.0625 24.4375 C-0.05747197 22.05794366 -0.05291138 19.67838628 -0.04882812 17.29882812 C-0.03793269 11.53252907 -0.02129913 5.76626954 0 0 Z " fill="#BED6FF" transform="translate(120,63)"/>
<path d="M0 0 C5.61 0 11.22 0 17 0 C17 0.33 17 0.66 17 1 C12.05 1.66 7.1 2.32 2 3 C1.67 29.07 1.34 55.14 1 82 C0.67 82 0.34 82 0 82 C0 54.94 0 27.88 0 0 Z " fill="#1059B3" transform="translate(136,146)"/>
<path d="M0 0 C-0.33 1.65 -0.66 3.3 -1 5 C-1.66 4.67 -2.32 4.34 -3 4 C-2.67 3.01 -2.34 2.02 -2 1 C-2.6084375 1.12117187 -3.216875 1.24234375 -3.84375 1.3671875 C-18.85680922 4.23733118 -33.25781921 5.28374152 -48.5 5.125 C-50.20963008 5.1149338 -51.919266 5.10581449 -53.62890625 5.09765625 C-57.75275289 5.07596845 -61.87630864 5.04164698 -66 5 C-66 4.67 -66 4.34 -66 4 C-65.2879541 3.98541748 -64.5759082 3.97083496 -63.84228516 3.95581055 C-49.41979589 3.62944205 -35.18689694 2.94817772 -20.88134766 1.01635742 C-13.87950917 0.09578113 -7.0602189 -0.16195316 0 0 Z " fill="#2B9CDE" transform="translate(202,141)"/>
<path d="M0 0 C2.52932454 2.52932454 2.97067527 4.65397191 4.0625 8.0625 C6.80356098 16.1864542 10.80452899 23.50304456 14.91308594 31.00195312 C16.50978666 33.93712804 18.04517522 36.89787933 19.5625 39.875 C20.03816406 40.80054688 20.51382813 41.72609375 21.00390625 42.6796875 C22 45 22 45 22 48 C19.39092237 45.65173424 17.88766735 43.23040212 16.2578125 40.1328125 C15.49766846 38.68914307 15.49766846 38.68914307 14.72216797 37.21630859 C14.19510254 36.19617676 13.66803711 35.17604492 13.125 34.125 C12.58633301 33.08811035 12.04766602 32.0512207 11.49267578 30.98291016 C7.80268759 23.78850159 4.62889412 16.64984505 2 9 C1.44699219 7.71996094 1.44699219 7.71996094 0.8828125 6.4140625 C0 4 0 4 0 0 Z " fill="#B5CEFF" transform="translate(42,145)"/>
<path d="M0 0 C2 3 2 3 2 6 C3.60875 5.95359375 3.60875 5.95359375 5.25 5.90625 C10.89611961 5.90625 16.4169902 6.72438788 22 7.5 C23.06089844 7.64308594 24.12179688 7.78617187 25.21484375 7.93359375 C27.81057243 8.2843679 30.40554555 8.63994284 33 9 C33 9.33 33 9.66 33 10 C26.97403427 11.0712828 21.11090483 11.09945415 15 11 C15 10.34 15 9.68 15 9 C11.04 9 7.08 9 3 9 C2.67 9.99 2.34 10.98 2 12 C0.86235649 7.73383684 0 4.43513689 0 0 Z " fill="#A1C1F8" transform="translate(41,116)"/>
<path d="M0 0 C0.33 0 0.66 0 1 0 C1.5923255 7.8581849 -0.56946358 14.74957331 -2.75 22.25 C-3.09804687 23.51585937 -3.44609375 24.78171875 -3.8046875 26.0859375 C-4.15273437 27.30023438 -4.50078125 28.51453125 -4.859375 29.765625 C-5.17358398 30.86680664 -5.48779297 31.96798828 -5.81152344 33.10253906 C-7.08345778 36.20346692 -8.48294469 37.82803548 -11 40 C-8.82198059 31.84197994 -6.50211577 23.72595299 -4.15771484 15.61450195 C-2.66693009 10.43144713 -1.27502885 5.24042959 0 0 Z " fill="#D4E3FF" transform="translate(227,107)"/>
<path d="M0 0 C0.99 0.33 1.98 0.66 3 1 C0.77651405 3.22348595 -0.23193545 3.49032012 -3.21875 4.21875 C-4.49492188 4.53392578 -4.49492188 4.53392578 -5.796875 4.85546875 C-6.68890625 5.06816406 -7.5809375 5.28085937 -8.5 5.5 C-9.36109375 5.71269531 -10.2221875 5.92539062 -11.109375 6.14453125 C-28.34511122 10.3502573 -28.34511122 10.3502573 -35 10 C-35 9.67 -35 9.34 -35 9 C-31.535 8.505 -31.535 8.505 -28 8 C-28 7.34 -28 6.68 -28 6 C-24.83601018 5.32019419 -21.66846323 4.65861314 -18.5 4 C-17.613125 3.80921875 -16.72625 3.6184375 -15.8125 3.421875 C-10.422217 2.31211085 -5.50240809 1.7943025 0 2 C0 1.34 0 0.68 0 0 Z " fill="#AAC8FA" transform="translate(97,32)"/>
<path d="M0 0 C1.67542976 0.28604898 3.34385343 0.61781233 5 1 C4.01 1.33 3.02 1.66 2 2 C0.254954 3.2240133 -1.40981058 4.52733981 -3.0859375 5.84375 C-5.37871516 7.22877487 -7.37619832 7.49632378 -10 8 C-12.87290727 9.22722229 -15.6644041 10.58155431 -18.4765625 11.94140625 C-21 13 -21 13 -24 13 C-24 12.34 -24 11.68 -24 11 C-23.030625 10.71125 -22.06125 10.4225 -21.0625 10.125 C-17.89335797 9.35785318 -17.89335797 9.35785318 -17 7 C-14.34253571 5.90146487 -11.70797178 4.89366529 -9 3.9375 C-4.1360138 2.54833422 -4.1360138 2.54833422 0 0 Z " fill="#B4D0FF" transform="translate(125,20)"/>
<path d="M0 0 C0.33 0 0.66 0 1 0 C0.88880836 3.33394127 0.75850266 6.66688349 0.625 10 C0.5940625 10.93457031 0.563125 11.86914062 0.53125 12.83203125 C0.2934434 18.49975528 -0.41870048 23.54901628 -2 29 C-2.66 29 -3.32 29 -4 29 C-4.66 30.32 -5.32 31.64 -6 33 C-4.30848329 22.04113111 -4.30848329 22.04113111 -3 17.625 C-1.40762626 11.8526452 -0.77313031 5.93007398 0 0 Z " fill="#A0BFF5" transform="translate(217,94)"/>
<path d="M0 0 C10.57844806 0.94055239 20.78861045 1.94269774 31 5 C31 5.33 31 5.66 31 6 C24.01400022 6.33586537 17.78967902 5.07207837 11 3.5 C9.93910156 3.26152344 8.87820312 3.02304687 7.78515625 2.77734375 C5.18828644 2.19246316 2.59344265 1.59986124 0 1 C0 0.67 0 0.34 0 0 Z " fill="#A1C0F7" transform="translate(164,36)"/>
<path d="M0 0 C4.47565339 -0.14918845 8.39211765 0.36083844 12.75 1.375 C13.87921875 1.63023438 15.0084375 1.88546875 16.171875 2.1484375 C19 3 19 3 21 5 C13.05122957 7.02615717 7.31690083 4.22345174 0 1 C0 0.67 0 0.34 0 0 Z " fill="#B3CDFA" transform="translate(147,30)"/>
<path d="M0 0 C0.99 0.33 1.98 0.66 3 1 C3 1.66 3 2.32 3 3 C3.763125 3.28875 4.52625 3.5775 5.3125 3.875 C8 5 8 5 11 7 C11 7.66 11 8.32 11 9 C11.86625 9.268125 12.7325 9.53625 13.625 9.8125 C16.91791964 10.97111987 19.91127875 12.38209839 23 14 C21.40234375 14.73046875 21.40234375 14.73046875 19 15 C16.69517944 13.86083581 14.69230512 12.71695435 12.5625 11.3125 C10.89380859 10.25482422 10.89380859 10.25482422 9.19140625 9.17578125 C1.25501584 3.76504752 1.25501584 3.76504752 0 0 Z " fill="#BBD2FF" transform="translate(97,230)"/>
<path d="M0 0 C3.81936528 1.55603771 6.26044438 3.95604931 9 7 C9 7.66 9 8.32 9 9 C9.99 9.33 10.98 9.66 12 10 C12 10.66 12 11.32 12 12 C13.32 12.66 14.64 13.32 16 14 C16 14.66 16 15.32 16 16 C11.99651254 14.39289933 9.2847985 11.58204033 6.3125 8.5625 C5.81427734 8.07201172 5.31605469 7.58152344 4.80273438 7.07617188 C2.47235151 4.73314107 1.05938764 3.17816293 0 0 Z " fill="#B6CFFF" transform="translate(79,213)"/>
<path d="M0 0 C5.52654117 -0.4820659 9.0712208 1.08880075 13.875 3.5 C14.56335938 3.83386719 15.25171875 4.16773438 15.9609375 4.51171875 C17.64573446 5.33071727 19.32360619 6.16393591 21 7 C16.82604157 8.29917911 14.105618 7.47182532 10 6 C9.67 5.34 9.34 4.68 9 4 C6.88672575 3.09274566 6.88672575 3.09274566 4.4375 2.375 C3.61121094 2.11460938 2.78492187 1.85421875 1.93359375 1.5859375 C1.29550781 1.39257812 0.65742187 1.19921875 0 1 C0 0.67 0 0.34 0 0 Z " fill="#CCDEFF" transform="translate(125,19)"/>
<path d="M0 0 C2.475 0.495 2.475 0.495 5 1 C5 1.66 5 2.32 5 3 C6.051875 3.12375 7.10375 3.2475 8.1875 3.375 C11.45958771 3.91140782 14.00536076 4.63880035 17 6 C17 6.66 17 7.32 17 8 C14.32668786 7.54171792 12.00381336 7.00162068 9.5 5.9375 C6.82226817 4.93335056 4.83421974 4.83804459 2 5 C2.33 4.01 2.66 3.02 3 2 C2.01 1.34 1.02 0.68 0 0 Z " fill="#A8C6FA" transform="translate(130,22)"/>
<path d="M0 0 C-4.29904015 3.73829578 -10.24928075 7 -16 7 C-16 6.34 -16 5.68 -16 5 C-15.030625 4.71125 -14.06125 4.4225 -13.0625 4.125 C-9.89335797 3.35785318 -9.89335797 3.35785318 -9 1 C-5.8035914 -0.06546953 -3.34252724 -0.07427838 0 0 Z " fill="#A8C6F9" transform="translate(117,26)"/>
<path d="M0 0 C3.37398488 0.40166487 5.89294578 0.94533402 8.9375 2.5 C12.3356862 4.16441773 15.25561628 4.62556163 19 5 C18.34 5.66 17.68 6.32 17 7 C10.79850164 6.66547934 5.35211268 3.91933419 0 1 C0 0.67 0 0.34 0 0 Z " fill="#B5D0FF" transform="translate(112,248)"/>
<path d="M0 0 C3.0390625 0.2421875 3.0390625 0.2421875 6.625 0.875 C8.40777344 1.18050781 8.40777344 1.18050781 10.2265625 1.4921875 C11.14179688 1.65976562 12.05703125 1.82734375 13 2 C12.67 2.66 12.34 3.32 12 4 C7.30976546 3.43393721 2.65499974 2.81462495 -2 2 C-1.34 1.34 -0.68 0.68 0 0 Z " fill="#DFEAFF" transform="translate(182,20)"/>
<path d="M0 0 C4.34271252 0.48252361 6.1398221 1.7453148 9 5 C9.66 5.66 10.32 6.32 11 7 C8.8125 7.3125 8.8125 7.3125 6 7 C3.48103932 4.82453396 1.4949015 2.989803 0 0 Z " fill="#B1CDFF" transform="translate(101,241)"/>
<path d="M0 0 C3.48247874 1.16082625 3.88819244 1.90932476 5.75 4.9375 C6.19859375 5.64777344 6.6471875 6.35804688 7.109375 7.08984375 C7.40328125 7.72019531 7.6971875 8.35054687 8 9 C7.67 9.66 7.34 10.32 7 11 C6.01216806 9.92456217 5.03506057 8.83926783 4.0625 7.75 C3.51722656 7.14671875 2.97195312 6.5434375 2.41015625 5.921875 C0.93787201 3.91532695 0.42470811 2.42997551 0 0 Z " fill="#B9D3FF" transform="translate(60,195)"/>
<path d="M0 0 C1.13298556 3.39895668 0.85659602 4.26983438 -0.25 7.5625 C-0.62898437 8.74005859 -0.62898437 8.74005859 -1.015625 9.94140625 C-2 12 -2 12 -5 14 C-3.45730076 9.27934033 -1.92205381 4.58335908 0 0 Z " fill="#D0E1FF" transform="translate(215,148)"/>
<path d="M0 0 C0 0.66 0 1.32 0 2 C0.66 2.33 1.32 2.66 2 3 C-0.66666667 3.66666667 -3.33333333 4.33333333 -6 5 C-6.74765625 5.18691406 -7.4953125 5.37382813 -8.265625 5.56640625 C-8.83796875 5.70949219 -9.4103125 5.85257812 -10 6 C-4.4 0 -4.4 0 0 0 Z " fill="#B1CCFF" transform="translate(129,1)"/>
<path d="M0 0 C3.3 0.66 6.6 1.32 10 2 C9.67 2.66 9.34 3.32 9 4 C5.7 3.34 2.4 2.68 -1 2 C-0.67 1.34 -0.34 0.68 0 0 Z " fill="#D5E7FF" transform="translate(163,15)"/>
<path d="M0 0 C0.66 0.33 1.32 0.66 2 1 C-1.17320782 4.53586014 -3.16743695 6.58578031 -8 7 C-5.4837822 4.39391727 -2.94865641 2.10618315 0 0 Z " fill="#98B8F2" transform="translate(154,221)"/>
<path d="M0 0 C-3 2 -3 2 -7 2 C-7 2.66 -7 3.32 -7 4 C-8.32 3.34 -9.64 2.68 -11 2 C-9.54494642 1.47007308 -8.08581873 0.9513211 -6.625 0.4375 C-5.81289062 0.14746094 -5.00078125 -0.14257812 -4.1640625 -0.44140625 C-2 -1 -2 -1 0 0 Z " fill="#C4DAFF" transform="translate(108,29)"/>
<path d="M0 0 C6.75 -0.125 6.75 -0.125 9 1 C9 1.66 9 2.32 9 3 C2.25 2.25 2.25 2.25 0 0 Z " fill="#99B9F2" transform="translate(155,33)"/>
<path d="M0 0 C2.64 0.99 5.28 1.98 8 3 C8 3.66 8 4.32 8 5 C4.62537285 4.45276317 2.91765 3.9451 0 2 C0 1.34 0 0.68 0 0 Z " fill="#D2E2FF" transform="translate(141,6)"/>
<path d="" fill="#C9C1FF" transform="translate(0,0)"/>
<path d="" fill="#9BB1FF" transform="translate(0,0)"/>
<path d="" fill="#5451FF" transform="translate(0,0)"/>
<path d="" fill="#D6DAFF" transform="translate(0,0)"/>
</svg>
